<?xml version="1.0" encoding="utf-8"?><svg viewBox="0 0 225 55" xmlns="http://www.w3.org/2000/svg" xmlns:xlink="http://www.w3.org/1999/xlink"><style>:root>svg{display:none}:root>svg:target{display:block}</style><svg fill="none" viewBox="0 0 21 15" id="icon--arrow-1" xmlns="http://www.w3.org/2000/svg"><path d="M20.707 8.207a1 1 0 0 0 0-1.414L14.343.429a1 1 0 1 0-1.414 1.414L18.586 7.5l-5.657 5.657a1 1 0 0 0 1.414 1.414l6.364-6.364zM0 8.5h20v-2H0v2z" fill="#7875FE"/></svg><svg fill="none" viewBox="0 0 24 24" id="icon--facebook" xmlns="http://www.w3.org/2000/svg"><g clip-path="url(#ba)"><path d="M15.402 21v-6.966h2.333l.349-2.708h-2.682V9.598c0-.784.218-1.319 1.342-1.319h1.434V5.857a19.188 19.188 0 0 0-2.09-.107c-2.067 0-3.482 1.262-3.482 3.58v1.996h-2.338v2.708h2.338V21H4a1 1 0 0 1-1-1V4a1 1 0 0 1 1-1h16a1 1 0 0 1 1 1v16a1 1 0 0 1-1 1h-4.598Z" fill="#fff"/></g><defs><clipPath id="ba"><path fill="#fff" d="M0 0h24v24H0z"/></clipPath></defs></svg><svg fill="none" viewBox="0 0 24 24" id="icon--inst" xmlns="http://www.w3.org/2000/svg"><g clip-path="url(#ca)"><path d="M12 2c2.717 0 3.056.01 4.122.06 1.065.05 1.79.217 2.428.465.66.254 1.216.598 1.772 1.153.509.5.902 1.105 1.153 1.772.247.637.415 1.363.465 2.428.047 1.066.06 1.405.06 4.122 0 2.717-.01 3.056-.06 4.122-.05 1.065-.218 1.79-.465 2.428a4.883 4.883 0 0 1-1.153 1.772c-.5.508-1.105.902-1.772 1.153-.637.247-1.363.415-2.428.465-1.066.047-1.405.06-4.122.06-2.717 0-3.056-.01-4.122-.06-1.065-.05-1.79-.218-2.428-.465a4.89 4.89 0 0 1-1.772-1.153 4.904 4.904 0 0 1-1.153-1.772c-.248-.637-.415-1.363-.465-2.428C2.013 15.056 2 14.717 2 12c0-2.717.01-3.056.06-4.122.05-1.066.217-1.79.465-2.428a4.88 4.88 0 0 1 1.153-1.772A4.897 4.897 0 0 1 5.45 2.525c.638-.248 1.362-.415 2.428-.465C8.944 2.013 9.283 2 12 2Zm0 5a5 5 0 1 0 0 10 5 5 0 0 0 0-10Zm6.5-.25a1.25 1.25 0 1 0-2.5 0 1.25 1.25 0 0 0 2.5 0ZM12 9a3 3 0 1 1 0 6 3 3 0 0 1 0-6Z" fill="#fff"/></g><defs><clipPath id="ca"><path fill="#fff" d="M0 0h24v24H0z"/></clipPath></defs></svg><svg fill="none" viewBox="0 0 24 24" id="icon--log-in" xmlns="http://www.w3.org/2000/svg"><g clip-path="url(#da)" stroke="#4C5866" stroke-width="2" stroke-linecap="round" stroke-linejoin="round"><path d="M15 3h4a2 2 0 0 1 2 2v14a2 2 0 0 1-2 2h-4m-5-4 5-5-5-5m5 5H3"/></g><defs><clipPath id="da"><path fill="#fff" d="M0 0h24v24H0z"/></clipPath></defs></svg><svg fill="none" viewBox="0 0 140 23" id="icon--logo-footer" xmlns="http://www.w3.org/2000/svg"><circle cx="8.5" cy="11" r="8" stroke="#fff"/><path d="M25.84 17.58c.747 0 1.36-.12 1.84-.36.493-.253.74-.673.74-1.26 0-.28-.047-.52-.14-.72-.08-.2-.22-.38-.42-.54-.2-.16-.467-.313-.8-.46-.32-.147-.72-.32-1.2-.52a30 30 0 0 1-1.1-.48 5.163 5.163 0 0 1-.92-.58 2.65 2.65 0 0 1-.64-.8c-.16-.307-.24-.68-.24-1.12 0-.84.313-1.52.94-2.04.64-.52 1.513-.78 2.62-.78.707 0 1.287.06 1.74.18.467.12.793.227.98.32l-.3 1.16a7.592 7.592 0 0 0-.82-.32c-.373-.133-.927-.2-1.66-.2-.293 0-.573.033-.84.1a1.93 1.93 0 0 0-.68.28c-.2.12-.36.28-.48.48-.12.187-.18.42-.18.7 0 .28.053.52.16.72.107.2.26.38.46.54.213.147.467.287.76.42.307.133.653.28 1.04.44.4.16.78.327 1.14.5.373.16.7.36.98.6.28.227.507.507.68.84.173.32.26.727.26 1.22 0 .933-.353 1.64-1.06 2.12-.693.48-1.647.72-2.86.72-.907 0-1.6-.08-2.08-.24-.48-.147-.8-.26-.96-.34l.34-1.18c.04.027.127.073.26.14.133.053.313.12.54.2.227.067.493.127.8.18.32.053.687.08 1.1.08Zm7.735.92h-1.3V8.16h1.3V18.5Zm.3-13.46c0 .307-.094.553-.28.74a.963.963 0 0 1-.68.26.963.963 0 0 1-.68-.26c-.187-.187-.28-.433-.28-.74s.093-.547.28-.72a.926.926 0 0 1 .68-.28c.266 0 .493.093.68.28.186.173.28.413.28.72Zm3.146 3.48a29.02 29.02 0 0 1 1.5-.36c.626-.133 1.433-.2 2.42-.2 1.306 0 2.253.38 2.84 1.14.066-.053.193-.14.38-.26.2-.133.446-.267.74-.4a5.707 5.707 0 0 1 1.02-.34c.4-.093.84-.14 1.32-.14.786 0 1.42.12 1.9.36.493.227.873.553 1.14.98.266.413.446.913.54 1.5.093.587.14 1.227.14 1.92v5.78h-1.3v-5.36c0-.68-.034-1.267-.1-1.76-.054-.507-.174-.92-.36-1.24a1.635 1.635 0 0 0-.76-.74c-.334-.173-.767-.26-1.3-.26-.4 0-.767.04-1.1.12a4.165 4.165 0 0 0-1.44.58 9.621 9.621 0 0 0-.32.24c.12.347.206.74.26 1.18.066.427.1.88.1 1.36v5.88h-1.3v-5.36c0-.68-.034-1.267-.1-1.76-.054-.507-.174-.92-.36-1.24a1.723 1.723 0 0 0-.8-.74c-.334-.173-.78-.26-1.34-.26-.627 0-1.16.033-1.6.1-.427.067-.7.127-.82.18v9.08h-1.3V8.52Zm18.565 8.12c.12.093.267.193.44.3.187.107.4.207.64.3s.5.173.78.24c.28.053.574.08.88.08.64 0 1.174-.107 1.6-.32a2.92 2.92 0 0 0 1.06-.9 3.93 3.93 0 0 0 .58-1.34c.12-.52.18-1.067.18-1.64 0-1.36-.34-2.4-1.02-3.12-.68-.733-1.58-1.1-2.7-1.1-.64 0-1.16.033-1.56.1-.386.053-.68.113-.88.18v7.22Zm0 5.56h-1.3V8.52c.387-.133.88-.26 1.48-.38s1.36-.18 2.28-.18c.76 0 1.447.127 2.06.38.627.24 1.16.593 1.6 1.06.454.467.8 1.033 1.04 1.7.254.667.38 1.42.38 2.26a7.12 7.12 0 0 1-.32 2.18c-.2.653-.5 1.22-.9 1.7a4.22 4.22 0 0 1-1.48 1.1c-.573.267-1.233.4-1.98.4-.68 0-1.273-.093-1.78-.28-.493-.2-.853-.387-1.08-.56v4.3Zm12.98-3.52a4.234 4.234 0 0 1-1.16-.18 2.114 2.114 0 0 1-.82-.44 2.209 2.209 0 0 1-.5-.8c-.106-.333-.16-.747-.16-1.24V3.22l1.3-.24v13c0 .32.027.58.08.78.067.187.16.34.28.46.12.107.274.187.46.24.2.053.434.1.7.14l-.18 1.08Zm1.858-5.36c0-.907.127-1.693.38-2.36.267-.68.607-1.247 1.02-1.7a4.019 4.019 0 0 1 1.44-1 4.348 4.348 0 0 1 1.68-.34c1.267 0 2.274.413 3.02 1.24.76.827 1.14 2.1 1.14 3.82 0 .107-.006.213-.02.32 0 .107-.006.207-.02.3h-7.26c.04 1.267.354 2.24.94 2.92.587.68 1.52 1.02 2.8 1.02.707 0 1.267-.067 1.68-.2.414-.133.714-.247.9-.34l.24 1.12c-.186.107-.54.233-1.06.38-.506.147-1.106.22-1.8.22-.906 0-1.68-.133-2.32-.4a4.153 4.153 0 0 1-1.58-1.12 4.435 4.435 0 0 1-.9-1.7 8.066 8.066 0 0 1-.28-2.18Zm7.34-.82c-.026-1.08-.28-1.92-.76-2.52-.48-.6-1.16-.9-2.04-.9-.466 0-.886.093-1.26.28-.36.187-.68.44-.96.76-.266.307-.48.667-.64 1.08a4.695 4.695 0 0 0-.26 1.3h5.92Z" fill="#fff"/><rect x="86.5" y="3" width="31" height="16" rx="8" stroke="#fff"/><circle cx="131.5" cy="11" r="8" stroke="#fff"/></svg><svg fill="none" viewBox="0 0 140 23" id="icon--logo-header" xmlns="http://www.w3.org/2000/svg"><circle cx="8.5" cy="11" r="8" stroke="#333"/><path d="M25.84 17.58c.747 0 1.36-.12 1.84-.36.493-.253.74-.673.74-1.26 0-.28-.047-.52-.14-.72-.08-.2-.22-.38-.42-.54-.2-.16-.467-.313-.8-.46-.32-.147-.72-.32-1.2-.52a30 30 0 0 1-1.1-.48 5.163 5.163 0 0 1-.92-.58 2.65 2.65 0 0 1-.64-.8c-.16-.307-.24-.68-.24-1.12 0-.84.313-1.52.94-2.04.64-.52 1.513-.78 2.62-.78.707 0 1.287.06 1.74.18.467.12.793.227.98.32l-.3 1.16a7.592 7.592 0 0 0-.82-.32c-.373-.133-.927-.2-1.66-.2a3.44 3.44 0 0 0-.84.1 1.93 1.93 0 0 0-.68.28c-.2.12-.36.28-.48.48-.12.187-.18.42-.18.7 0 .28.053.52.16.72.107.2.26.38.46.54.213.147.467.287.76.42.307.133.653.28 1.04.44.4.16.78.327 1.14.5.373.16.7.36.98.6.28.227.507.507.68.84.173.32.26.727.26 1.22 0 .933-.353 1.64-1.06 2.12-.693.48-1.647.72-2.86.72-.907 0-1.6-.08-2.08-.24-.48-.147-.8-.26-.96-.34l.34-1.18c.04.027.127.073.26.14.133.053.313.12.54.2.227.067.493.127.8.18.32.053.687.08 1.1.08zm7.735.92h-1.3V8.16h1.3V18.5zm.3-13.46c0 .307-.094.553-.28.74a.963.963 0 0 1-.68.26.963.963 0 0 1-.68-.26c-.187-.187-.28-.433-.28-.74s.093-.547.28-.72a.926.926 0 0 1 .68-.28c.266 0 .493.093.68.28.186.173.28.413.28.72zm3.146 3.48a29.02 29.02 0 0 1 1.5-.36c.626-.133 1.433-.2 2.42-.2 1.306 0 2.253.38 2.84 1.14.066-.053.193-.14.38-.26.2-.133.446-.267.74-.4a5.707 5.707 0 0 1 1.02-.34c.4-.093.84-.14 1.32-.14.786 0 1.42.12 1.9.36.493.227.873.553 1.14.98.266.413.446.913.54 1.5.093.587.14 1.227.14 1.92v5.78h-1.3v-5.36c0-.68-.034-1.267-.1-1.76-.054-.507-.174-.92-.36-1.24a1.635 1.635 0 0 0-.76-.74c-.334-.173-.767-.26-1.3-.26-.4 0-.767.04-1.1.12a4.165 4.165 0 0 0-1.44.58 9.621 9.621 0 0 0-.32.24c.12.347.206.74.26 1.18.066.427.1.88.1 1.36v5.88h-1.3v-5.36c0-.68-.034-1.267-.1-1.76-.054-.507-.174-.92-.36-1.24a1.723 1.723 0 0 0-.8-.74c-.334-.173-.78-.26-1.34-.26-.627 0-1.16.033-1.6.1-.427.067-.7.127-.82.18v9.08h-1.3V8.52zm18.565 8.12c.12.093.267.193.44.3.187.107.4.207.64.3s.5.173.78.24c.28.053.574.08.88.08.64 0 1.174-.107 1.6-.32a2.92 2.92 0 0 0 1.06-.9 3.93 3.93 0 0 0 .58-1.34c.12-.52.18-1.067.18-1.64 0-1.36-.34-2.4-1.02-3.12-.68-.733-1.58-1.1-2.7-1.1-.64 0-1.16.033-1.56.1-.386.053-.68.113-.88.18v7.22zm0 5.56h-1.3V8.52c.387-.133.88-.26 1.48-.38s1.36-.18 2.28-.18c.76 0 1.447.127 2.06.38.627.24 1.16.593 1.6 1.06.454.467.8 1.033 1.04 1.7.254.667.38 1.42.38 2.26a7.12 7.12 0 0 1-.32 2.18c-.2.653-.5 1.22-.9 1.7a4.22 4.22 0 0 1-1.48 1.1c-.573.267-1.233.4-1.98.4-.68 0-1.273-.093-1.78-.28-.493-.2-.853-.387-1.08-.56v4.3zm12.98-3.52a4.234 4.234 0 0 1-1.16-.18 2.114 2.114 0 0 1-.82-.44 2.209 2.209 0 0 1-.5-.8c-.106-.333-.16-.747-.16-1.24V3.22l1.3-.24v13c0 .32.027.58.08.78.067.187.16.34.28.46.12.107.274.187.46.24.2.053.434.1.7.14l-.18 1.08zm1.858-5.36c0-.907.127-1.693.38-2.36.267-.68.607-1.247 1.02-1.7a4.019 4.019 0 0 1 1.44-1 4.348 4.348 0 0 1 1.68-.34c1.267 0 2.274.413 3.02 1.24.76.827 1.14 2.1 1.14 3.82 0 .107-.006.213-.02.32 0 .107-.006.207-.02.3h-7.26c.04 1.267.354 2.24.94 2.92.587.68 1.52 1.02 2.8 1.02.707 0 1.267-.067 1.68-.2.414-.133.714-.247.9-.34l.24 1.12c-.186.107-.54.233-1.06.38-.506.147-1.106.22-1.8.22-.906 0-1.68-.133-2.32-.4a4.153 4.153 0 0 1-1.58-1.12 4.435 4.435 0 0 1-.9-1.7 8.066 8.066 0 0 1-.28-2.18zm7.34-.82c-.026-1.08-.28-1.92-.76-2.52-.48-.6-1.16-.9-2.04-.9-.466 0-.886.093-1.26.28-.36.187-.68.44-.96.76-.266.307-.48.667-.64 1.08a4.695 4.695 0 0 0-.26 1.3h5.92z" fill="#333"/><rect x="86.5" y="3" width="31" height="16" rx="8" stroke="#333"/><circle cx="131.5" cy="11" r="8" stroke="#333"/></svg><svg fill="none" viewBox="0 0 24 24" id="icon--search" xmlns="http://www.w3.org/2000/svg"><g clip-path="url(#ga)" stroke="#4C5866" stroke-width="2" stroke-linecap="round" stroke-linejoin="round"><path d="M13 19a8 8 0 1 1 0-16 8 8 0 0 1 0 16zM3 21l4.35-4.35"/></g><defs><clipPath id="ga"><path fill="#fff" transform="matrix(-1 0 0 1 24 0)" d="M0 0h24v24H0z"/></clipPath></defs></svg><svg fill="none" viewBox="0 0 24 24" id="icon--twitter" xmlns="http://www.w3.org/2000/svg"><g clip-path="url(#ha)"><path d="M22.162 5.656a8.383 8.383 0 0 1-2.402.658A4.196 4.196 0 0 0 21.6 4c-.82.488-1.719.83-2.656 1.015a4.182 4.182 0 0 0-7.126 3.814 11.874 11.874 0 0 1-8.62-4.37 4.168 4.168 0 0 0-.566 2.103c0 1.45.738 2.731 1.86 3.481a4.168 4.168 0 0 1-1.894-.523v.052a4.185 4.185 0 0 0 3.355 4.101 4.211 4.211 0 0 1-1.89.072A4.185 4.185 0 0 0 7.97 16.65a8.395 8.395 0 0 1-6.191 1.732 11.83 11.83 0 0 0 6.41 1.88c7.693 0 11.9-6.373 11.9-11.9 0-.18-.005-.362-.013-.54a8.495 8.495 0 0 0 2.087-2.165l-.001-.001Z" fill="#fff"/></g><defs><clipPath id="ha"><path fill="#fff" d="M0 0h24v24H0z"/></clipPath></defs></svg><svg fill="none" viewBox="0 0 24 24" id="icon--youtube" xmlns="http://www.w3.org/2000/svg"><g clip-path="url(#ia)"><path d="M21.543 6.498C22 8.28 22 12 22 12s0 3.72-.457 5.502c-.254.985-.997 1.76-1.938 2.022C17.896 20 12 20 12 20s-5.893 0-7.605-.476c-.945-.266-1.687-1.04-1.938-2.022C2 15.72 2 12 2 12s0-3.72.457-5.502c.254-.985.997-1.76 1.938-2.022C6.107 4 12 4 12 4s5.896 0 7.605.476c.945.266 1.687 1.04 1.938 2.022ZM10 15.5l6-3.5-6-3.5v7Z" fill="#fff"/></g><defs><clipPath id="ia"><path fill="#fff" d="M0 0h24v24H0z"/></clipPath></defs></svg><svg fill="none" viewBox="0 0 197 55" id="partners--part-1" xmlns="http://www.w3.org/2000/svg"><g clip-path="url(#ja)"><path d="M62.575 48.9V29.534h-2.459v8.333h-8.424v-8.333h-2.459V48.9h2.459v-8.767h8.457V48.9h2.425zm14.619-9.867c0-3.033-1.311-4.6-5.31-4.6-1.508 0-3.278.234-4.557.634l.23 1.966c1.114-.233 2.852-.466 4.163-.466 2.261 0 3.015.633 3.015 2.4v2.2h-3.67c-2.82 0-4.262 1.066-4.262 4 0 2.5 1.114 4.066 3.704 4.066 1.672 0 3.278-.466 4.523-1.333l.164 1.067h2.032l-.032-9.934zm-2.426 6.934c-1.082.7-2.393 1.166-3.606 1.166-1.704 0-1.966-.6-1.966-2.033 0-1.433.557-1.9 2.032-1.9h3.54v2.767zM92.206 48.9V38.033c0-2.166-.786-3.6-3.015-3.6-1.606 0-3.835.7-5.376 1.5v-7.3l-2.393.334v19.967h2.393V38.267c1.508-.767 3.639-1.467 4.655-1.467.885 0 1.344.367 1.344 1.3v10.834h2.392V48.9zm15.243 0V38.033c0-2.166-.787-3.6-3.016-3.6-1.639 0-4.065.734-5.605 1.534l-.23-1.2h-1.966v14.166h2.392v-10.7c1.508-.766 3.639-1.433 4.655-1.433.885 0 1.344.367 1.344 1.3v10.834h2.426V48.9zm6.129-4.933V42.8h8.293v-2.966c0-2.934-1.114-5.367-5.244-5.367-4.131 0-5.442 2.367-5.442 5.3V44c0 3.2 1.41 5.2 5.507 5.2 1.737 0 3.606-.3 4.917-.8l-.295-1.966c-1.541.4-3.016.666-4.392.666-2.721 0-3.344-.9-3.344-3.133zm0-4.4c0-2 .787-3.067 3.049-3.067 2.261 0 2.917 1.133 2.917 3.067v1.166h-5.966v-1.166zm31.304 9.333V38.033c0-2.166-.787-3.6-3.016-3.6-1.737 0-4.097.7-5.769 1.534-.393-.967-1.213-1.533-2.655-1.533-1.639 0-4.065.733-5.605 1.533l-.23-1.2h-1.966v14.166h2.393v-10.7c1.507-.766 3.638-1.433 4.654-1.433.885 0 1.344.367 1.344 1.3v10.834h2.393v-10.7c1.508-.767 3.507-1.434 4.654-1.434.885 0 1.344.367 1.344 1.3v10.834h2.459V48.9zm4.294-14.133v10.866c0 2.167.786 3.6 3.015 3.6 1.639 0 4.065-.733 5.606-1.533l.229 1.2h1.967V34.734H157.6v10.7c-1.508.766-3.639 1.433-4.655 1.433-.885 0-1.344-.367-1.344-1.3V34.733l-2.425.034zm1.934-2.167h2.229v-2.433h-2.229V32.6zm4.949 0h2.229v-2.433h-2.229V32.6zm19.307 16.3V38.033c0-2.166-.787-3.6-3.016-3.6-1.606 0-3.835.7-5.375 1.5v-7.3l-2.393.334v19.967h2.393V38.267c1.507-.767 3.638-1.467 4.654-1.467.885 0 1.344.367 1.344 1.3v10.834h2.393V48.9zm6.851 0V28.6l-2.393.333V48.9h2.393zm6.228-4.933V42.8h8.293v-2.966c0-2.934-1.115-5.367-5.245-5.367s-5.441 2.367-5.441 5.3V44c0 3.2 1.409 5.2 5.507 5.2 1.737 0 3.605-.3 4.916-.8l-.295-1.966c-1.54.4-3.015.666-4.392.666-2.721 0-3.343-.9-3.343-3.133zm0-4.4c0-2 .786-3.067 3.048-3.067s2.917 1.133 2.917 3.067v1.166h-5.965v-1.166z" fill="#6F7072"/><path d="M38.548 22.033c-.23-2.6-1.344-4.9-3.18-6.4-1.639-1.367-3.737-2.033-5.769-1.767-2.491.267-4.523 2.2-5.802 3.767a18.532 18.532 0 0 0-2.95 5c-1.278-1.133-2.098-2.467-2.49-4.1-.329-1.4-.69-4.167-.951-6.167-.197-1.333-.296-2.4-.394-2.766-.262-1.234-1.082-3.334-1.606-4.434 1.147-.233 2.032-.533 2.885-1.366.852-.867 2.229-2.2 2.261-2.2l.82-.8-1.148-.1C19.995.666 14.16.233 13.177.266c-.688.034-1.54.4-2.229 1.067-.557.5-1.278 1.367-1.803 2.767-.524.1-5.277 1.033-5.277 1.033v1.033l.393.1C5.736 6.6 7.605 7.4 8.72 8.233l-.065.033c-.951.634-2.23 1.5-3.311 2.5-1.377 1.267-2.032 2.4-1.934 3.4.066.7.36 1.234.852 1.6.394.267.885.4 1.442.4-.655 1.167-1.016 2.067-1.278 2.934-.328 1.2-.459 2.4-.295 3.9.197 2.3 1.344 4.6 2.655 6.6H0v15.966c0 1.434.295 2.8.918 4 .557 1.134 1.344 2.1 2.327 2.934 1.77 1.466 4.13 2.333 6.326 2.333 2.197 0 4.557-.867 6.327-2.333.983-.8 1.77-1.8 2.327-2.934.557-1.1.852-2.3.918-3.566.13-2.134.852-5.3 1.966-7.767 1.246-2.8 2.918-4.267 5.048-4.467 1.148-.1 2.295.067 3.278.534.82.366 1.606.933 2.23 1.633 1.147 1.233 1.704 2.633 1.77 2.933v-.033l.393 1.3.557-1.133c.885-1.867 2.13-4.8 3.048-8.234 1.016-3.266 1.344-6.233 1.115-8.733zM7.572 30.566l.23.3c.72.967 1.474 1.8 2.097 2.467l1.41 1.533c2.261 2.4 4.031 4.3 4.85 5.7 1.05 1.8 1.804 3.567 2.066 4.9.033.134.066.4.066.5-.132 2.867-1.607 4.667-2.885 5.734-1.606 1.333-3.737 2.133-5.704 2.133-1.999 0-4.097-.767-5.703-2.133-1.311-1.1-2.885-3.067-2.885-6.134V30.633l6.458-.067zm1.704-21.5.23-.166c.164.233.262.433.262.666.066.8-.656 1.667-1.54 2.8-.59.734-1.246 1.6-1.902 2.6-.622.167-1.147.1-1.508-.166a1.212 1.212 0 0 1-.426-.834c-.065-.666.492-1.533 1.606-2.566 1.082-.867 2.36-1.7 3.278-2.334zm27.338 21.467c-.721 2.733-1.672 5.2-2.524 6.967a9.003 9.003 0 0 0-1.508-2.167c-1.18-1.333-3.278-2.833-6.425-2.567-1.343.134-2.556.7-3.605 1.634-.852.8-1.606 1.966-2.262 3.4-.754 1.733-1.278 3.7-1.672 5.533a21.669 21.669 0 0 0-1.606-3.3c-.885-1.5-2.688-3.433-4.982-5.867l-1.41-1.533c-1.508-1.633-2.786-3.3-3.704-4.9C5.9 25.966 5.31 24.3 5.18 22.866c-.131-1.366-.033-2.433.262-3.533.262-1 .754-2.033 1.64-3.533.622-1.1 1.31-1.967 1.966-2.734 1.049-1.3 1.835-2.333 1.737-3.533-.098-1-.918-1.933-2.524-2.8-.688-.367-1.475-.7-2.196-.967 1.54-.3 3.54-.7 3.54-.7L9.9 5l.099-.267c.72-2.367 2.327-3.433 3.212-3.467.623-.033 3.605.2 5.769.334-.459.433-1.016 1-1.442 1.433-.689.7-1.475.9-2.623 1.167l-1.114.266.426.634c.23.333 1.41 3.133 1.77 4.7.098.333.23 1.433.36 2.666.263 2.134.623 4.834.984 6.3.492 2.1 1.54 3.734 3.343 5.1l.59.434.099-.367c.491-1.633 1.835-4.033 3.146-5.633 1.148-1.434 3.016-3.167 5.147-3.434 1.737-.233 3.573.367 5.015 1.567 1.606 1.333 2.622 3.367 2.819 5.7.262 2.367-.066 5.2-.885 8.4zM13.275 5.9c-.065-.8-.786-1.434-1.606-1.334-.787.067-1.41.8-1.31 1.634.065.8.786 1.433 1.605 1.333.787-.1 1.377-.833 1.311-1.633zM12.26 6c.033.233-.164.466-.393.5-.23.033-.459-.167-.492-.4-.033-.234.164-.467.394-.5.262-.067.458.1.491.4zM8.424 47.433v.233c0 .334-.033.5-.655.5a3.71 3.71 0 0 1-1.017-.133l-.098.7c.295.1.688.167 1.147.167 1.18 0 1.443-.434 1.443-1.167v-.4c0-.6-.23-1-1.017-1.033-.229 0-.36-.034-.59-.034v-1.1h1.541v-.7H6.785v2.467c.328 0 .59 0 1.05.033.524.034.59.134.59.467zM3.54 48.8h2.557v-.7h-.885v-3.634H4.49l-1.082.334.197.7.82-.234V48.1h-.853v.7H3.54zm6.36-1.334v.267c0 .767.36 1.133 1.409 1.133s1.41-.3 1.41-1.133v-.267c0-.366-.132-.633-.624-.866.426-.234.525-.5.525-.834v-.3c0-.666-.328-1.066-1.279-1.066-.95 0-1.278.4-1.278 1.066v.3c0 .334.131.6.524.834-.557.233-.688.5-.688.866zm1.933-1.7c0 .234-.065.334-.524.534-.46-.2-.525-.267-.525-.534V45.5c0-.267.098-.4.525-.4.426 0 .524.166.524.4v.266zm-1.147 1.767c0-.267.065-.4.623-.633.557.233.622.333.622.633v.2c0 .333-.163.433-.622.433-.46 0-.623-.133-.623-.433v-.2zm3.999-3.067-1.54 2.6v.734h1.868v.966h.786V47.8h.525v-.7h-.525v-2.667h-1.114v.033zm-.721 2.667 1.049-1.9v1.9h-1.05z" fill="#E1001A"/></g><defs><clipPath id="ja"><path fill="#fff" d="M0 0h197v55H0z"/></clipPath></defs></svg><svg fill="none" viewBox="0 0 186 53" id="partners--part-2" xmlns="http://www.w3.org/2000/svg"><path fill-rule="evenodd" clip-rule="evenodd" d="M35.238 7c3.077 1.904 6.847 7.032 8.155 10.84 1.539 4.25.077 8.424-3.54 11.5-5.923 4.982-9.693 8.424-12.463 11.574-2.155 2.49-4.847 5.64-4.617 12.086-5.693-6.52-6.77-16.554-.615-23.073 6.617-7.032 7.848-8.497 10.31-11.573 2.308-2.93 3.154-7.106 2.77-11.354zM9.501 39C-6.489 25.474-2.12 6.688 21.28 1.353 23.775.75 24.867.526 26.115 0c1.326 2.63 1.482 4.659-1.794 6.838C16.13 12.173 3.729 19.462 9.5 39z" fill="#558EC0"/><path fill-rule="evenodd" clip-rule="evenodd" d="M67.918 42.335c-1.309.517-1.964.665-3.927.665C56.218 43 50 37.165 50 30s6.3-13 13.99-13c1.31 0 2.62.148 4.01.59v6.427c-1.227-.665-2.454-.96-4.01-.96-4.254 0-7.69 3.102-7.69 6.943 0 3.84 3.436 6.943 7.69 6.943 1.8 0 2.7-.295 3.846-.886l.082 6.278zM156 30c0 7.165-6.079 13-13.5 13-7.5 0-13.5-5.835-13.5-13s6.079-13 13.5-13S156 22.835 156 30zm-13.579-6.943c-4.105 0-7.421 3.102-7.421 6.943 0 3.84 3.316 6.943 7.421 6.943s7.421-3.102 7.421-6.943c0-3.84-3.316-6.943-7.421-6.943zM98.89 42.925H92V27.04C92 21.72 96.676 17 102.5 17S113 21.72 113 27.04V43h-6.891V27.04c0-2.322-1.64-3.746-3.691-3.746s-3.691 1.648-3.691 3.746l.164 15.885zm65.672 0H158V27.04c0-5.32 4.453-10.04 10-10.04s10 4.72 10 10.04V43h-6.562V27.04c0-2.247-1.563-3.746-3.516-3.746s-3.516 1.648-3.516 3.746l.156 15.885zm-87.999-6.743v6.743H70V27.04C70 21.72 74.453 17 80 17s10 4.72 10 10.04V43h-6.563v-6.893h-6.874v.075zm6.953-5.92v-3.147c0-2.248-1.563-3.746-3.516-3.746-1.797 0-3.516 1.648-3.516 3.746v3.222h7.032v-.075zm40.679-3.687 2.061 3.631c3.567 6.053-.079 14.526-11.256 12.483v-5.976c4.598 1.664 7.134-.681 5.152-4.388 0 0-1.426-2.497-2.536-4.388-2.695-4.54.713-12.257 10.384-10.744v6.129c-2.457-1.74-5.707 0-3.805 3.253z" fill="#053D5B"/><path d="M186 20.5c0 .735-.353 1.323-.882 1.765-.53.44-1.324.735-2.118.735-.882 0-1.588-.294-2.118-.735-.529-.442-.882-1.103-.882-1.765 0-.735.353-1.323.882-1.765.53-.44 1.324-.735 2.118-.735.794 0 1.588.294 2.118.735.529.442.882 1.03.882 1.765zm-1.147 1.618c.529-.441.794-.956.794-1.618 0-.588-.265-1.177-.794-1.618-.529-.44-1.147-.661-1.941-.661s-1.412.22-1.941.661c-.53.441-.795.956-.795 1.618 0 .662.265 1.177.795 1.618.529.44 1.147.661 1.941.661s1.412-.294 1.941-.661z" fill="#053D5B"/><path fill-rule="evenodd" clip-rule="evenodd" d="M182.471 19.395h.647c.235 0 .411.079.411.473 0 .316-.117.474-.411.474h-.647v-.947zM182.059 22h.412v-1.263h.588c.353 0 .47.237.47.79 0 .157 0 .315.059.473H184a2.566 2.566 0 0 1-.118-.79c0-.473-.176-.631-.353-.631.059 0 .353-.158.353-.79 0-.552-.235-.789-.764-.789H182v3h.059z" fill="#053D5B"/></svg><svg fill="none" viewBox="0 0 225 21" id="partners--part-3" xmlns="http://www.w3.org/2000/svg"><g clip-path="url(#la)"><path d="m13.552 20.145-2.509.66-5.466-8.244-3.07-.077.15 7.972-2.47.194V.506L4.977.35C7.15.272 8.834.778 9.995 1.79c1.16 1.05 1.76 2.45 1.76 4.121 0 1.128-.375 2.217-1.086 3.306-.711 1.128-1.722 1.983-3.07 2.528v.078l5.953 8.322zM2.62 1.945l-.15 9.178 3.744-.156c1.348-.389 2.957-2.022 2.957-4.433 0-2.684-1.684-4.434-4.492-4.512l-2.06-.077zm22.575 18.86c-5.391 0-9.622-4.16-9.622-10.383C15.573 4.706 20.365.04 25.756.04c5.429 0 9.66 4.2 9.66 10.422-.038 5.756-5.055 10.345-10.221 10.345zm.374-1.671c4.23 0 7.188-3.267 7.188-8.478S29.313 1.71 25.382 1.71c-4.193 0-7.188 3.228-7.188 8.517 0 5.095 3.519 8.906 7.375 8.906zm20.441 1.322-2.47.194v-9.566L36.238.7l2.658-.35 6.14 9.295L51.364.35l2.134.35-7.526 10.5.038 9.256zm24.26-.04-2.584.273-1.909-5.328-9.322.195-1.91 5.094-2.133-.233L60.76.35l1.123-.272 8.386 20.339zM61.021 3.812l-3.856 9.956 8.012.155-4.156-10.11zm17.82 16.645-5.128.155V.545l2.47-.195-.112 8.517.075 10.033 8.236-.31-.187 1.905-5.353-.04zm56.943 0-2.471.194V2.022l-7.487.273.187-1.945h8.311l8.723-.194-.187 2.06-7.038-.271-.15 7.389.112 11.122zm23.848-.04-2.583.273-1.909-5.328-9.322.195-1.91 5.094-2.134-.233L150.124.35l1.123-.272 8.386 20.339zm-9.247-16.605-3.856 9.956 8.012.155-4.156-10.11zm17.82 16.645-5.129.155V.545l2.471-.195-.112 8.478.075 10.033 8.236-.31-.187 1.905h-5.354zm12.317 0-3.257.155V.506l4.642-.156h5.766l-.187 1.945-7.75-.311-.187 7.622 6.739-.195-.412 1.906-6.365-.194.188 7.738 8.61-.272-.187 1.906h-7.6v-.04zm13.89 0-2.209.194.187-20.105 1.797-.195 11.943 15.556-.225-15.361 2.209-.195-.262 20.106-.824.155L194.15 4.357l.262 16.1zm23.436.194a8.4 8.4 0 0 1-3.332-.7c-1.086-.466-1.91-1.05-2.509-1.633l1.198-1.361c1.498 1.166 3.108 2.06 5.279 2.06 2.396 0 4.043-1.127 4.043-3.343 0-1.167-.412-2.062-1.16-2.606-.749-.544-1.797-1.089-3.07-1.633-2.658-1.09-5.503-2.217-5.503-5.912 0-2.955 2.583-5.327 6.102-5.327 1.834 0 3.744.544 4.867 1.4l-.45 1.75c-1.123-.545-3.294-1.361-4.941-1.361-1.835 0-3.37.894-3.37 2.838 0 1.245.412 2.14 1.161 2.684.749.583 1.797 1.128 3.032 1.672 2.621 1.167 5.541 2.1 5.541 5.717.038 3.81-3.294 5.755-6.888 5.755z" fill="#333"/><path d="M95.279.078v20.494h19.729V.078h-19.73zm9.846 19.639c-5.017 0-9.06-4.2-9.06-9.412 0-5.21 4.043-9.41 9.06-9.41 5.016 0 9.06 4.2 9.06 9.41 0 5.212-4.044 9.412-9.06 9.412zm-7.937-7.74c.187.934 1.086 3.19 2.62 2.645 1.124-.428 1.199-1.517 1.423-2.761.187-1.167.487-3.383.861-3.85.038-.039 0-.078-.037-.078-.899.04-1.498 2.14-1.835 3.111-.636 1.906-2.583 2.061-2.92.895 0 0-.112 0-.112.039zm15.724-3.305c-.225-.505-.375-.7-.599-1.167.187-.544.412-1.283.374-1.594-.15-1.322-1.872.078-1.497 1.789.112.467.224.817.299 1.128-.524 1.089-.749.894-.711.505.037-.272.075-.816.075-.816.149-1.05-.375-1.128-.712-.895-.187.117-.449.506-.561.739l.112-.506-.936.39-.299 1.594c-.375.894-.786 1.05-1.049 1.01l-.224-.116c.861-.778 1.16-1.439 1.086-1.905-.075-.506-.45-.506-.712-.428-.674.233-1.235.933-1.385 1.905-.037.312-.037.623.037.856-.599.972-.636.428-.561.039.187-.895.786-4.589.786-4.589l-.936.389s-.561 3.228-.786 4.472c-.449 1.128-.562.7-.487.311.15-.894.375-2.06.375-2.06l-.899.35s-.075.271-.15.738c-.112-.35-.337-.583-.636-.622-.562-.078-1.161.7-1.348 1.633-.187.972.113 1.828.674 1.867.412.039.824-.311 1.086-.856.15.35.524.311.749.156.224-.156.449-.545.599-.856.074.467.449.467.711.311.412-.233.786-.777.973-1.01.15.271.412.427.712.388.411-.039.898-.583 1.272-1.205l-.149.738.936-.388.337-1.79c.449-1.127.599-.738.561-.388 0 0-.037.31-.112.816-.113 1.05.337 1.09.674.895.486-.311.786-.895 1.048-1.439.187.467.412.856.599 1.439 1.348 3.928-3.744 3.539-5.765 3.617-1.872.077-2.06 1.75-2.247 3.033 6.964.078 10.108-5.25 8.686-8.478zm-9.509 2.995c-.038.466-.337.972-.599.972-.262 0-.45-.39-.375-.934.075-.466.3-.894.562-.894.262 0 .449.389.412.856zm3.669-1.245c-.038-.117-.038-.233-.038-.389.038-.466.262-.972.562-1.05.112-.039.224 0 .224.195 0 .427-.412.933-.748 1.244zm5.091-3.267c-.037-.038-.037-.077-.037-.116-.562-1.4.187-1.595.262-1.011 0 .31-.075.739-.225 1.127zm-6.065-4.005c-.112.894-.187 2.761-1.872 3.033-2.77.467-6.476 1.711-7.075 4.511 0 .04-.113.04-.113.04-.075-4.395 3.707-7.584 9.06-7.584z" fill="red"/></g><defs><clipPath id="la"><path fill="#fff" d="M0 0h225v21H0z"/></clipPath></defs></svg><svg fill="none" viewBox="0 0 209 26" id="partners--part-4" xmlns="http://www.w3.org/2000/svg"><g clip-path="url(#ma)" fill-rule="evenodd" clip-rule="evenodd"><path d="M126.092 25.924h-2.257V.076h2.257v25.848zM179.734.076v21.667L159.571.076V0h-2.332v25.924h2.332V4.03l20.163 21.895v-.077.077h2.332V.076h-2.332zm-27.611 0v.076l-23.925 25.695h3.46L152.123 3.27v14.975h-10.081v2.357h10.081v5.246h2.255V.076h-2.255zm-37.917 14.062h.15c3.762 0 6.845-3.42 6.845-7.22 0-3.65-2.859-6.69-6.396-6.842V0H95.924v25.924h2.332V2.357h16.4a4.592 4.592 0 0 1 2.857 1.53 4.576 4.576 0 0 1 1.131 3.032c0 2.433-1.881 4.789-4.364 4.941h-3.159v2.585h.074l6.696 11.403h3.688l-7.373-11.71zM81.027 0 68.464.076v25.847h18.883c3.61-.228 6.394-3.27 6.394-6.92a6.818 6.818 0 0 0-3.235-5.853c1.955-1.215 3.235-3.724 3.235-6.232 0-3.65-2.784-6.615-6.32-6.842V0h-6.394zm0 23.566H70.795V2.357h16.476a4.591 4.591 0 0 1 2.857 1.53 4.57 4.57 0 0 1 1.13 3.032c0 2.508-2.031 4.865-4.515 4.941v2.583c2.483 0 4.515 2.053 4.515 4.56 0 2.357-1.806 4.258-4.062 4.563h-6.169z" fill="#000"/><path d="M0 0v25.847h2.333l20.463-21.97v14.367h-9.931v2.357h9.931v5.246h2.258V0H0zm2.333 22.35v-8.818h8.275L2.333 22.35zm0-11.175V2.356H21.14l-8.275 8.819H2.333z" fill="#00ACEC"/><path d="M196.21 0c-7.071 0-12.865 5.778-12.865 12.925 0 7.144 5.794 13 12.865 13 7.071 0 12.79-5.856 12.79-13C209 5.778 203.281 0 196.21 0zm0 23.186c-5.568 0-10.006-4.56-10.006-10.11 0-5.626 4.438-10.11 10.006-10.11 5.492 0 10.006 4.484 10.006 10.11 0 5.55-4.514 10.11-10.006 10.11zM58.758 2.509V.152H33.555v25.772h2.257V14.063H50.66L39.723 25.847h3.461L63.573 3.27v14.975H53.567v2.357h10.006l.15 5.399h2.332L65.905.076h-2.332v.076L52.847 11.707H35.812V2.509h22.946z" fill="#000"/></g><defs><clipPath id="ma"><path fill="#fff" d="M0 0h209v26H0z"/></clipPath></defs></svg></svg>